<svg width="183" height="37" viewBox="0 0 183 37" fill="none" xmlns="http://www.w3.org/2000/svg">
<path d="M53.296 25V11.59H55.744V25H53.296ZM58.1253 25V15.208H60.3393V17.134L60.1593 16.792C60.3873 16.204 60.7593 15.76 61.2753 15.46C61.8033 15.148 62.4153 14.992 63.1113 14.992C63.8313 14.992 64.4673 15.148 65.0193 15.46C65.5833 15.772 66.0213 16.21 66.3333 16.774C66.6453 17.326 66.8013 17.968 66.8013 18.7V25H64.4433V19.258C64.4433 18.826 64.3593 18.454 64.1913 18.142C64.0233 17.83 63.7893 17.59 63.4893 17.422C63.2013 17.242 62.8593 17.152 62.4633 17.152C62.0793 17.152 61.7373 17.242 61.4373 17.422C61.1373 17.59 60.9033 17.83 60.7353 18.142C60.5673 18.454 60.4833 18.826 60.4833 19.258V25H58.1253ZM69.9293 25V17.314H68.2013V15.208H69.9293V14.884C69.9293 14.14 70.0793 13.51 70.3793 12.994C70.6913 12.466 71.1233 12.064 71.6753 11.788C72.2273 11.512 72.8813 11.374 73.6373 11.374C73.7813 11.374 73.9373 11.386 74.1053 11.41C74.2853 11.422 74.4353 11.44 74.5553 11.464V13.498C74.4353 13.474 74.3213 13.462 74.2133 13.462C74.1173 13.45 74.0273 13.444 73.9433 13.444C73.4153 13.444 73.0073 13.564 72.7193 13.804C72.4313 14.032 72.2873 14.392 72.2873 14.884V15.208H74.4653V17.314H72.2873V25H69.9293ZM80.6145 25.216C79.6545 25.216 78.7785 24.994 77.9865 24.55C77.2065 24.106 76.5825 23.5 76.1145 22.732C75.6585 21.964 75.4305 21.088 75.4305 20.104C75.4305 19.12 75.6585 18.244 76.1145 17.476C76.5825 16.708 77.2065 16.102 77.9865 15.658C78.7665 15.214 79.6425 14.992 80.6145 14.992C81.5745 14.992 82.4445 15.214 83.2245 15.658C84.0045 16.102 84.6225 16.708 85.0785 17.476C85.5465 18.232 85.7805 19.108 85.7805 20.104C85.7805 21.088 85.5465 21.964 85.0785 22.732C84.6105 23.5 83.9865 24.106 83.2065 24.55C82.4265 24.994 81.5625 25.216 80.6145 25.216ZM80.6145 23.056C81.1425 23.056 81.6045 22.93 82.0005 22.678C82.4085 22.426 82.7265 22.078 82.9545 21.634C83.1945 21.178 83.3145 20.668 83.3145 20.104C83.3145 19.528 83.1945 19.024 82.9545 18.592C82.7265 18.148 82.4085 17.8 82.0005 17.548C81.6045 17.284 81.1425 17.152 80.6145 17.152C80.0745 17.152 79.6005 17.284 79.1925 17.548C78.7845 17.8 78.4605 18.148 78.2205 18.592C77.9925 19.024 77.8785 19.528 77.8785 20.104C77.8785 20.668 77.9925 21.178 78.2205 21.634C78.4605 22.078 78.7845 22.426 79.1925 22.678C79.6005 22.93 80.0745 23.056 80.6145 23.056ZM92.2847 25.216C91.3127 25.216 90.4367 24.994 89.6567 24.55C88.8887 24.094 88.2827 23.482 87.8387 22.714C87.3947 21.934 87.1727 21.058 87.1727 20.086C87.1727 19.114 87.3947 18.244 87.8387 17.476C88.2827 16.708 88.8887 16.102 89.6567 15.658C90.4367 15.214 91.3127 14.992 92.2847 14.992C92.9807 14.992 93.6287 15.118 94.2287 15.37C94.8287 15.61 95.3447 15.946 95.7767 16.378C96.2207 16.798 96.5387 17.302 96.7307 17.89L94.6607 18.79C94.4807 18.298 94.1747 17.902 93.7427 17.602C93.3227 17.302 92.8367 17.152 92.2847 17.152C91.7687 17.152 91.3067 17.278 90.8987 17.53C90.5027 17.782 90.1907 18.13 89.9627 18.574C89.7347 19.018 89.6207 19.528 89.6207 20.104C89.6207 20.68 89.7347 21.19 89.9627 21.634C90.1907 22.078 90.5027 22.426 90.8987 22.678C91.3067 22.93 91.7687 23.056 92.2847 23.056C92.8487 23.056 93.3407 22.906 93.7607 22.606C94.1807 22.306 94.4807 21.904 94.6607 21.4L96.7307 22.336C96.5387 22.888 96.2267 23.386 95.7947 23.83C95.3627 24.262 94.8467 24.604 94.2467 24.856C93.6467 25.096 92.9927 25.216 92.2847 25.216ZM98.5199 25V11.374H100.878V17.134L100.554 16.792C100.782 16.204 101.154 15.76 101.67 15.46C102.198 15.148 102.81 14.992 103.506 14.992C104.226 14.992 104.862 15.148 105.414 15.46C105.978 15.772 106.416 16.21 106.728 16.774C107.04 17.326 107.196 17.968 107.196 18.7V25H104.838V19.258C104.838 18.826 104.754 18.454 104.586 18.142C104.418 17.83 104.184 17.59 103.884 17.422C103.596 17.242 103.254 17.152 102.858 17.152C102.474 17.152 102.132 17.242 101.832 17.422C101.532 17.59 101.298 17.83 101.13 18.142C100.962 18.454 100.878 18.826 100.878 19.258V25H98.5199ZM113.834 25.216C112.826 25.216 111.944 24.988 111.188 24.532C110.432 24.076 109.844 23.458 109.424 22.678C109.004 21.898 108.794 21.034 108.794 20.086C108.794 19.102 109.004 18.232 109.424 17.476C109.856 16.708 110.438 16.102 111.17 15.658C111.914 15.214 112.742 14.992 113.654 14.992C114.422 14.992 115.094 15.118 115.67 15.37C116.258 15.622 116.756 15.97 117.164 16.414C117.572 16.858 117.884 17.368 118.1 17.944C118.316 18.508 118.424 19.12 118.424 19.78C118.424 19.948 118.412 20.122 118.388 20.302C118.376 20.482 118.346 20.638 118.298 20.77H110.738V18.97H116.966L115.85 19.816C115.958 19.264 115.928 18.772 115.76 18.34C115.604 17.908 115.34 17.566 114.968 17.314C114.608 17.062 114.17 16.936 113.654 16.936C113.162 16.936 112.724 17.062 112.34 17.314C111.956 17.554 111.662 17.914 111.458 18.394C111.266 18.862 111.194 19.432 111.242 20.104C111.194 20.704 111.272 21.238 111.476 21.706C111.692 22.162 112.004 22.516 112.412 22.768C112.832 23.02 113.312 23.146 113.852 23.146C114.392 23.146 114.848 23.032 115.22 22.804C115.604 22.576 115.904 22.27 116.12 21.886L118.028 22.822C117.836 23.29 117.536 23.704 117.128 24.064C116.72 24.424 116.234 24.706 115.67 24.91C115.118 25.114 114.506 25.216 113.834 25.216ZM120.211 25V15.208H122.425V17.476L122.173 17.098C122.353 16.39 122.713 15.862 123.253 15.514C123.793 15.166 124.429 14.992 125.161 14.992C125.965 14.992 126.673 15.202 127.285 15.622C127.897 16.042 128.293 16.594 128.473 17.278L127.807 17.332C128.107 16.552 128.557 15.97 129.157 15.586C129.757 15.19 130.447 14.992 131.227 14.992C131.923 14.992 132.541 15.148 133.081 15.46C133.633 15.772 134.065 16.21 134.377 16.774C134.689 17.326 134.845 17.968 134.845 18.7V25H132.487V19.258C132.487 18.826 132.409 18.454 132.253 18.142C132.097 17.83 131.881 17.59 131.605 17.422C131.329 17.242 130.993 17.152 130.597 17.152C130.225 17.152 129.895 17.242 129.607 17.422C129.319 17.59 129.097 17.83 128.941 18.142C128.785 18.454 128.707 18.826 128.707 19.258V25H126.349V19.258C126.349 18.826 126.271 18.454 126.115 18.142C125.959 17.83 125.737 17.59 125.449 17.422C125.173 17.242 124.843 17.152 124.459 17.152C124.087 17.152 123.757 17.242 123.469 17.422C123.181 17.59 122.959 17.83 122.803 18.142C122.647 18.454 122.569 18.826 122.569 19.258V25H120.211ZM137.038 25V11.59H142.024C142.936 11.59 143.74 11.758 144.436 12.094C145.144 12.418 145.696 12.898 146.092 13.534C146.488 14.158 146.686 14.92 146.686 15.82C146.686 16.744 146.464 17.53 146.02 18.178C145.588 18.826 145 19.306 144.256 19.618L147.334 25H144.562L141.268 19.114L142.852 20.05H139.486V25H137.038ZM139.486 17.89H142.06C142.504 17.89 142.888 17.806 143.212 17.638C143.536 17.458 143.788 17.212 143.968 16.9C144.148 16.588 144.238 16.228 144.238 15.82C144.238 15.4 144.148 15.04 143.968 14.74C143.788 14.428 143.536 14.188 143.212 14.02C142.888 13.84 142.504 13.75 142.06 13.75H139.486V17.89ZM152.984 25.216C152.024 25.216 151.148 24.994 150.356 24.55C149.576 24.106 148.952 23.5 148.484 22.732C148.028 21.964 147.8 21.088 147.8 20.104C147.8 19.12 148.028 18.244 148.484 17.476C148.952 16.708 149.576 16.102 150.356 15.658C151.136 15.214 152.012 14.992 152.984 14.992C153.944 14.992 154.814 15.214 155.594 15.658C156.374 16.102 156.992 16.708 157.448 17.476C157.916 18.232 158.15 19.108 158.15 20.104C158.15 21.088 157.916 21.964 157.448 22.732C156.98 23.5 156.356 24.106 155.576 24.55C154.796 24.994 153.932 25.216 152.984 25.216ZM152.984 23.056C153.512 23.056 153.974 22.93 154.37 22.678C154.778 22.426 155.096 22.078 155.324 21.634C155.564 21.178 155.684 20.668 155.684 20.104C155.684 19.528 155.564 19.024 155.324 18.592C155.096 18.148 154.778 17.8 154.37 17.548C153.974 17.284 153.512 17.152 152.984 17.152C152.444 17.152 151.97 17.284 151.562 17.548C151.154 17.8 150.83 18.148 150.59 18.592C150.362 19.024 150.248 19.528 150.248 20.104C150.248 20.668 150.362 21.178 150.59 21.634C150.83 22.078 151.154 22.426 151.562 22.678C151.97 22.93 152.444 23.056 152.984 23.056ZM165.284 25.216C164.576 25.216 163.922 25.078 163.322 24.802C162.734 24.514 162.266 24.106 161.918 23.578L162.152 23.11V25H159.938V11.374H162.296V17.152L161.936 16.666C162.272 16.138 162.728 15.73 163.304 15.442C163.88 15.142 164.546 14.992 165.302 14.992C166.226 14.992 167.06 15.22 167.804 15.676C168.548 16.132 169.136 16.744 169.568 17.512C170.012 18.28 170.234 19.144 170.234 20.104C170.234 21.052 170.018 21.916 169.586 22.696C169.154 23.476 168.566 24.094 167.822 24.55C167.078 24.994 166.232 25.216 165.284 25.216ZM165.014 23.056C165.554 23.056 166.034 22.93 166.454 22.678C166.874 22.426 167.198 22.078 167.426 21.634C167.666 21.19 167.786 20.68 167.786 20.104C167.786 19.528 167.666 19.024 167.426 18.592C167.198 18.148 166.874 17.8 166.454 17.548C166.034 17.284 165.554 17.152 165.014 17.152C164.498 17.152 164.03 17.278 163.61 17.53C163.202 17.782 162.878 18.136 162.638 18.592C162.41 19.036 162.296 19.54 162.296 20.104C162.296 20.68 162.41 21.19 162.638 21.634C162.878 22.078 163.202 22.426 163.61 22.678C164.03 22.93 164.498 23.056 165.014 23.056ZM176.82 25.216C175.86 25.216 174.984 24.994 174.192 24.55C173.412 24.106 172.788 23.5 172.32 22.732C171.864 21.964 171.636 21.088 171.636 20.104C171.636 19.12 171.864 18.244 172.32 17.476C172.788 16.708 173.412 16.102 174.192 15.658C174.972 15.214 175.848 14.992 176.82 14.992C177.78 14.992 178.65 15.214 179.43 15.658C180.21 16.102 180.828 16.708 181.284 17.476C181.752 18.232 181.986 19.108 181.986 20.104C181.986 21.088 181.752 21.964 181.284 22.732C180.816 23.5 180.192 24.106 179.412 24.55C178.632 24.994 177.768 25.216 176.82 25.216ZM176.82 23.056C177.348 23.056 177.81 22.93 178.206 22.678C178.614 22.426 178.932 22.078 179.16 21.634C179.4 21.178 179.52 20.668 179.52 20.104C179.52 19.528 179.4 19.024 179.16 18.592C178.932 18.148 178.614 17.8 178.206 17.548C177.81 17.284 177.348 17.152 176.82 17.152C176.28 17.152 175.806 17.284 175.398 17.548C174.99 17.8 174.666 18.148 174.426 18.592C174.198 19.024 174.084 19.528 174.084 20.104C174.084 20.668 174.198 21.178 174.426 21.634C174.666 22.078 174.99 22.426 175.398 22.678C175.806 22.93 176.28 23.056 176.82 23.056Z" fill="black"/>
<rect x="5.24121" width="39.4067" height="37" rx="18.5" fill="#021539"/>
<path d="M30.2034 9.70239V5.5011L30.4946 5.54016C31.154 5.6286 31.7692 5.92098 32.2542 6.37637V8.65207C31.7646 9.11175 31.1691 9.44333 30.5204 9.61734L30.2034 9.70239Z" fill="white"/>
<path d="M20.1356 5.50109L20.1577 9.70233L19.8663 9.66463C19.2065 9.57924 18.5897 9.28973 18.1023 8.8366L18.0903 6.56093C18.5774 6.09898 19.1713 5.76463 19.819 5.58761L20.1356 5.50109Z" fill="white"/>
<path d="M23.678 2V3.05032L23.0299 3.35455C22.2466 3.72231 21.6261 4.36567 21.2869 5.16182C21.1423 5.5012 21.0678 5.86628 21.0678 6.23517V8.54648C21.0678 8.96179 21.16 9.37192 21.3377 9.7473C21.6477 10.4024 22.1479 10.9489 22.7729 11.3157L23.3051 11.628V13.3785H22.3729V14.0787H23.3051V14.6039H20.5085L20.322 15.4791C18.7932 15.8104 17.5038 16.8306 16.8298 18.2423L15.4746 21.0809C12.7312 21.205 12.264 25.0916 14.9153 25.8073L15.4746 26.5075L19.1319 20.53C19.6122 19.7448 20.8086 19.9708 20.9695 20.8771L22.3729 28.7832H27.5932L29.174 20.6874C29.3458 19.8078 30.4989 19.5809 30.9912 20.3299L35.0508 26.5075L35.2373 25.9824L35.5572 25.829C37.9299 24.6914 37.2978 21.1518 34.678 20.9058L33.148 18.0327C32.4615 16.7435 31.2524 15.8129 29.8305 15.4791L29.6441 14.6039H26.8475V14.0787H27.7797V13.3785H26.8475V12.1531V11.628L27.4732 11.2608C28.0411 10.9275 28.5149 10.4554 28.8502 9.88877C29.1258 9.42296 29.2712 8.89166 29.2712 8.35042V6.15996C29.2712 5.83934 29.2215 5.52066 29.1239 5.21526C28.8612 4.39289 28.2678 3.71712 27.4863 3.35024L26.8475 3.05032V2H23.678Z" fill="white"/>
<path d="M39.8982 28.7833C39.8982 30.2335 38.6461 31.4091 37.1015 31.4091C35.557 31.4091 34.3049 30.2335 34.3049 28.7833C34.3049 27.3331 35.557 26.1575 37.1015 26.1575C38.6461 26.1575 39.8982 27.3331 39.8982 28.7833ZM36.1517 28.7833C36.1517 29.2758 36.5769 29.6751 37.1015 29.6751C37.6261 29.6751 38.0514 29.2758 38.0514 28.7833C38.0514 28.2907 37.6261 27.8914 37.1015 27.8914C36.5769 27.8914 36.1517 28.2907 36.1517 28.7833Z" fill="white"/>
<path d="M15.8476 28.7833C15.8476 30.2335 14.5955 31.4091 13.051 31.4091C11.5065 31.4091 10.2544 30.2335 10.2544 28.7833C10.2544 27.3331 11.5065 26.1575 13.051 26.1575C14.5955 26.1575 15.8476 27.3331 15.8476 28.7833ZM12.1011 28.7833C12.1011 29.2758 12.5264 29.6751 13.051 29.6751C13.5756 29.6751 14.0009 29.2758 14.0009 28.7833C14.0009 28.2907 13.5756 27.8914 13.051 27.8914C12.5264 27.8914 12.1011 28.2907 12.1011 28.7833Z" fill="white"/>
<path d="M22.5593 30.3587V29.3084H27.4068V30.3587H22.5593Z" fill="white"/>
<path d="M22.9324 32.1093V31.059H27.0341V32.1093H22.9324Z" fill="white"/>
<rect x="22.5593" y="5.8512" width="5.22034" height="2.10065" fill="#021539"/>
</svg>
